<svg width="35" height="35" fill="none" xmlns="http://www.w3.org/2000/svg"><g fill="#fff"><path d="M27.215 10.354c-.767-.708-1.438-1.73-2.148-2.814-.827-1.26-1.682-2.562-2.825-3.594-1.386-1.252-2.937-1.86-4.742-1.86-1.805 0-3.356.608-4.742 1.86-1.143 1.032-1.998 2.335-2.824 3.594-.711 1.083-1.382 2.106-2.149 2.814C4.873 13.042 0 17.541 0 23.806c0 3.287 1.56 5.695 4.634 7.155 2.805 1.332 6.893 1.953 12.866 1.953s10.061-.62 12.866-1.953C33.44 29.501 35 27.093 35 23.806c0-6.265-4.873-10.764-7.785-13.452zM29.387 28.9c-2.454 1.166-6.342 1.732-11.887 1.732-5.545 0-9.433-.566-11.887-1.732-2.303-1.094-3.33-2.665-3.33-5.093 0-5.266 4.243-9.183 7.05-11.775.973-.898 1.754-2.088 2.509-3.238.747-1.14 1.52-2.317 2.445-3.153.961-.867 1.982-1.271 3.213-1.271 1.23 0 2.252.404 3.213 1.271.925.836 1.698 2.014 2.445 3.153.755 1.15 1.536 2.34 2.509 3.238 2.807 2.592 7.05 6.51 7.05 11.775 0 2.428-1.027 4-3.33 5.093z"/><path d="M15.637 11.046l-1.36-1.833c-.954.708-1.128 2.19-1.37 4.242-.296 2.516-.664 5.646-2.49 7.44l1.6 1.628c2.399-2.357 2.837-6.081 3.157-8.8.12-1.022.285-2.421.515-2.724 0 0-.016.02-.052.047zm6.456 2.41c-.241-2.053-.416-3.535-1.37-4.243l-1.36 1.833c-.035-.026-.051-.047-.051-.047.23.303.394 1.702.514 2.723.32 2.72.759 6.444 3.158 8.801l1.6-1.628c-1.826-1.794-2.195-4.924-2.49-7.44z"/></g></svg>