<svg width="35" height="35" fill="none" xmlns="http://www.w3.org/2000/svg"><g clip-path="url(#clip0_278_1537)" fill="#fff"><path d="M33.547 9.998c-1.114-1.875-2.678-3.659-3.735-4.595-2.306-2.043-4.23-1.994-5.172-1.782a3.561 3.561 0 00-1.08.431c-1.642-1.22-3.641-1.817-6.06-1.817-2.419 0-4.418.598-6.061 1.817a3.56 3.56 0 00-1.079-.43c-.94-.212-2.866-.262-5.172 1.78-1.056.936-2.621 2.72-3.735 4.595-1.508 2.54-1.844 4.593-.999 6.105 1.033 1.846 2.599 2.318 3.863 2.435-.31 1.206-.502 2.498-.502 4.106 0 2.133.485 3.967 1.442 5.453.842 1.306 2.053 2.352 3.601 3.109 2.86 1.398 6.302 1.56 8.642 1.56s5.782-.162 8.642-1.56c1.547-.757 2.76-1.803 3.6-3.11.958-1.485 1.444-3.32 1.444-5.452 0-1.608-.192-2.9-.503-4.106 1.264-.117 2.83-.59 3.863-2.435.845-1.512.51-3.566-.999-6.105zm-28.565 6.43c-1.119-.03-2.029-.247-2.658-1.37-.427-.764-.073-2.209.97-3.966.991-1.667 2.413-3.287 3.315-4.085 1.49-1.32 2.605-1.393 3.13-1.322-1.562 1.905-2.52 4.382-3.322 6.79a71.158 71.158 0 01-.96 2.671c-.166.44-.325.864-.475 1.282zm11.12 7.023c-.554-.553-.844-1.135-.844-1.423 0-.257.044-.276.208-.345.467-.196 1.385-.219 2.034-.219.65 0 1.567.023 2.034.22.164.068.208.087.208.344 0 .288-.29.87-.844 1.424-.546.544-1.127.838-1.398.838-.27 0-.853-.294-1.398-.838zm9.099 5.83c-1.644.804-3.82 1.24-6.63 1.326v-4.389c.841-.324 1.526-.937 1.841-1.251.443-.443 1.472-1.614 1.472-2.939 0-1.083-.54-1.907-1.52-2.32-.652-.274-1.482-.386-2.864-.386-1.381 0-2.211.112-2.865.387-.98.412-1.52 1.236-1.52 2.32 0 1.323 1.03 2.495 1.473 2.938.315.315 1 .927 1.84 1.252v4.388c-2.808-.087-4.985-.522-6.629-1.326-2.585-1.264-3.842-3.435-3.842-6.637 0-2.739.631-4.42 1.505-6.744.301-.803.643-1.713.988-2.749 1.893-5.69 3.896-8.773 9.05-8.773 5.154 0 7.157 3.083 9.05 8.773.345 1.036.687 1.946.988 2.749.874 2.325 1.505 4.005 1.505 6.744 0 3.202-1.257 5.373-3.842 6.637zm7.475-14.224c-.63 1.125-1.539 1.341-2.658 1.37a93.76 93.76 0 00-.474-1.28 69.16 69.16 0 01-.961-2.672c-.801-2.408-1.76-4.885-3.323-6.79.526-.07 1.642.002 3.131 1.322.902.798 2.324 2.417 3.314 4.085 1.044 1.757 1.398 3.202.97 3.965z"/><path d="M13.935 13.621c-.775 0-1.406.638-1.406 1.424 0 .787.631 1.425 1.406 1.425.776 0 1.407-.638 1.407-1.425 0-.786-.63-1.424-1.407-1.424zm7.12-.01c-.783 0-1.418.642-1.418 1.434 0 .793.635 1.435 1.417 1.435s1.417-.642 1.417-1.435c0-.792-.635-1.435-1.417-1.435z"/></g><defs><clipPath id="clip0_278_1537"><path fill="#fff" d="M0 0h35v35H0z"/></clipPath></defs></svg>