<svg width="37" height="37" fill="none" xmlns="http://www.w3.org/2000/svg"><g clip-path="url(#clip0_278_1541)" fill="#fff"><path d="M35.916 26.16h-2.873a7.572 7.572 0 001.074-6.395c-1.135-4.027-5.336-6.38-9.362-5.244-3.562 1.005-8.934 1.005-12.496 0a7.583 7.583 0 00-9.363 5.244 7.566 7.566 0 001.07 6.395H1.085a1.084 1.084 0 000 2.168h.135l.362 2.714C2.019 34.327 5.07 37 8.386 37h20.228c3.314 0 6.367-2.673 6.805-5.958l.362-2.714h.135a1.084 1.084 0 100-2.168zM4.983 20.353a5.417 5.417 0 016.687-3.745c3.898 1.099 9.776 1.099 13.673 0a5.426 5.426 0 016.688 3.745 5.397 5.397 0 01-1.963 5.807H6.946a5.402 5.402 0 01-1.963-5.807zM33.27 30.756c-.294 2.21-2.427 4.076-4.656 4.076h-2.526v-1.084a1.084 1.084 0 00-2.168 0v1.084h-4.336v-1.084a1.084 1.084 0 00-2.168 0v1.084H13.08v-1.084a1.084 1.084 0 00-2.168 0v1.084H8.386c-2.23 0-4.362-1.867-4.656-4.076l-.324-2.428h30.188l-.324 2.428zM15.255 13.152a4.34 4.34 0 004.336-4.336 4.34 4.34 0 00-4.336-4.336 4.34 4.34 0 00-4.336 4.336 4.34 4.34 0 004.336 4.336zm0-6.504a2.17 2.17 0 012.168 2.168 2.17 2.17 0 01-2.168 2.168 2.17 2.17 0 01-2.168-2.168 2.17 2.17 0 012.168-2.168zm9.835-.144a3.256 3.256 0 003.252-3.252A3.256 3.256 0 0025.09 0a3.256 3.256 0 00-3.252 3.252 3.256 3.256 0 003.252 3.252zm0-4.336a1.085 1.085 0 010 2.168 1.085 1.085 0 010-2.168zm-2.254 10.876a1.048 1.048 0 100-2.096 1.048 1.048 0 000 2.096z"/></g><defs><clipPath id="clip0_278_1541"><path fill="#fff" d="M0 0h37v37H0z"/></clipPath></defs></svg>