<svg width="35" height="35" fill="none" xmlns="http://www.w3.org/2000/svg"><g clip-path="url(#clip0_113_2707)"><path d="M34.51 20.861c-.58-2.087-1.527-4.047-2.052-5.05.367-1.352-1.027-2.765-1.51-3.254-.947-.958-2.256-1.96-3.502-2.682a17.534 17.534 0 00-3.141-1.411c-.44-.591-1.28-1.066-2.512-1.42-1.265-.361-2.87-.578-4.293-.578s-3.028.217-4.294.579c-1.232.353-2.071.828-2.511 1.42a17.59 17.59 0 00-3.142 1.41c-1.246.722-2.555 1.724-3.5 2.682-.485.49-1.88 1.903-1.511 3.255-.526 1.003-1.473 2.963-2.052 5.05-.826 2.976-.607 5.166.65 6.51.715.763 1.608 1.162 2.598 1.162.081 0 .163-.003.246-.008 2.392-.157 4.694-2.57 5.9-4.065.222.062.457.095.71.095.85 0 1.882-.356 3.124-1.075l.162-.095c.738.615 1.926.917 3.62.917 1.694 0 2.882-.302 3.62-.917l.162.096c1.243.719 2.274 1.074 3.125 1.074.252 0 .487-.033.708-.095 1.206 1.495 3.508 3.908 5.9 4.065.083.005.165.008.247.008.989 0 1.883-.4 2.598-1.162 1.257-1.344 1.476-3.534.65-6.51zM3.835 26.248c-.405.026-.722-.108-1.029-.437-.657-.701-.698-2.242-.116-4.34.35-1.263.854-2.482 1.294-3.426a88.97 88.97 0 001.924 2.445c.953 1.167 1.66 1.98 2.192 2.55-1.318 1.637-3.008 3.125-4.265 3.208zm8.74-4.742c-1.13.653-1.776.775-2.004.768-.316-.255-1.26-1.211-3.076-3.45-1.372-1.692-2.372-3.05-2.696-3.554.282-.653 1.937-2.284 3.897-3.419a15.25 15.25 0 011.82-.886c.275 1.6.795 4.02 1.114 5.431.549 2.43.943 3.96 1.234 4.935-.095.06-.192.118-.29.175zm7.048.154c-.199.131-.817.36-2.123.36-1.305 0-1.923-.229-2.123-.36-.587-1.316-2.557-10.16-2.748-11.928.564-.417 2.708-.983 4.87-.983 2.163 0 4.307.566 4.871.983-.192 1.778-2.16 10.614-2.747 11.928zm4.806.614c-.229.007-.874-.115-2.003-.768a10.93 10.93 0 01-.29-.175c.29-.976.685-2.504 1.234-4.934.319-1.411.84-3.832 1.114-5.432.63.258 1.263.565 1.819.886 1.961 1.136 3.616 2.766 3.898 3.42-.323.502-1.323 1.86-2.697 3.553-1.815 2.239-2.76 3.195-3.075 3.45zm7.765 3.537c-.308.329-.624.463-1.029.436-1.257-.082-2.948-1.57-4.265-3.207.532-.57 1.239-1.383 2.191-2.55a88.781 88.781 0 001.925-2.445c.44.944.944 2.163 1.294 3.427.582 2.096.54 3.637-.117 4.34z" fill="#569F4C"/></g><defs><clipPath id="clip0_113_2707"><path fill="#fff" d="M0 0h35v35H0z"/></clipPath></defs></svg>