<svg width="35" height="35" fill="none" xmlns="http://www.w3.org/2000/svg"><g clip-path="url(#clip0_278_1519)" fill="#fff"><path d="M33.333 17.73c-.023-.024-.047-.046-.071-.069l.001-.001c-3.083-3.084-6.766-5.222-10.37-6.02-2.15-.477-4.133-.45-5.84.056l-6.341-6.34a4.074 4.074 0 00-.98-4.166A4.037 4.037 0 006.858 0a4.036 4.036 0 00-2.873 1.188 4.048 4.048 0 00-1.036 1.76A4.043 4.043 0 001.19 3.983 4.034 4.034 0 000 6.857C0 7.942.423 8.963 1.19 9.73a4.047 4.047 0 004.167.981l6.34 6.34c-.505 1.708-.533 3.69-.056 5.84.798 3.604 2.936 7.287 6.02 10.371l.001-.001.069.07c1.098 1.1 2.602 1.668 4.346 1.668a9.21 9.21 0 001.94-.217c2.385-.514 4.812-1.911 6.834-3.932 2.021-2.022 3.418-4.449 3.932-6.834.554-2.565.039-4.798-1.45-6.286zM5.77 7.896l-.768.476c-.696.43-1.62.322-2.198-.256a1.769 1.769 0 01-.522-1.26c0-.475.185-.922.523-1.26a1.772 1.772 0 011.182-.519l1.048-.045.044-1.048c.018-.452.198-.86.52-1.181a1.77 1.77 0 011.259-.52c.477 0 .924.184 1.26.521.336.335.522.782.522 1.258 0 .334-.092.658-.266.937l-.477.769 6.951 6.952a7.65 7.65 0 00-2.127 2.127L5.77 7.897zm10.51 19.15a10.17 10.17 0 00-.128.718c-1.104-1.749-1.886-3.573-2.283-5.366-.665-3-.16-5.524 1.423-7.107 1.583-1.583 4.107-2.088 7.107-1.423 1.793.397 3.617 1.18 5.366 2.283-.241.034-.48.077-.719.128-2.385.515-4.811 1.912-6.833 3.933-2.021 2.021-3.418 4.448-3.933 6.833zm12.957 2.19c-1.715 1.715-3.74 2.892-5.701 3.315-1.781.384-3.27.089-4.192-.833-2.008-2.008-.87-6.538 2.483-9.892 2.227-2.227 4.973-3.477 7.155-3.477 1.103 0 2.063.32 2.737.994 2.008 2.009.871 6.539-2.482 9.893z"/><path d="M29.114 21.949c-1.456-1.457-4.17-1.024-6.18.985-2.008 2.008-2.44 4.723-.984 6.179.58.58 1.36.86 2.217.86 1.291 0 2.754-.637 3.962-1.845 2.009-2.009 2.441-4.723.985-6.18zm-2.599 4.565c-1.201 1.202-2.55 1.386-2.951.985-.401-.4-.217-1.75.985-2.951.832-.832 1.734-1.176 2.344-1.176.27 0 .484.067.607.19.401.402.217 1.75-.985 2.952z"/></g><defs><clipPath id="clip0_278_1519"><path fill="#fff" d="M0 0h35v35H0z"/></clipPath></defs></svg>