<svg width="35" height="35" fill="none" xmlns="http://www.w3.org/2000/svg"><g fill="#fff"><path d="M34.964 16.41c-1.322-5.124-4.559-7.98-7.04-9.471-2.678-1.61-5.049-2.012-5.148-2.029l-.363-.06L0 15.989V30.15h35V16.551l-.036-.14zM22.745 7.234c.67.158 2.252.61 4.002 1.661 2.65 1.593 4.515 3.828 5.561 6.66H6.003l16.742-8.32zm.464 10.603a2.429 2.429 0 01-2.141 1.285 2.428 2.428 0 01-2.14-1.285h4.28zm.765 10.03a2.175 2.175 0 011.931-1.178c.84 0 1.569.48 1.93 1.178h-3.86zm8.743 0h-2.47a4.463 4.463 0 00-4.342-3.46 4.462 4.462 0 00-4.342 3.46H2.283v-10.03h14.216a4.717 4.717 0 004.569 3.568 4.717 4.717 0 004.569-3.568h7.08v10.03z"/><path d="M8.01 19.122a3.78 3.78 0 00-3.775 3.775 3.78 3.78 0 003.775 3.775 3.78 3.78 0 003.775-3.775 3.78 3.78 0 00-3.775-3.775zm0 5.267c-.823 0-1.492-.67-1.492-1.492 0-.823.67-1.492 1.492-1.492.823 0 1.492.67 1.492 1.492 0 .823-.669 1.492-1.492 1.492z"/></g></svg>