<svg width="35" height="35" fill="none" xmlns="http://www.w3.org/2000/svg"><g clip-path="url(#clip0_278_1530)"><path d="M35 9.848l-2.3-3.483 1.985-1.712L30.312.28l-1.725 2-3.4-2.246-3.465 6.195c-.939-.363-1.86-.5-2.77-.414-2.078.197-4 1.574-5.713 4.095a650.501 650.501 0 01-2.504 3.646c-2.725 3.95-5.815 8.427-7.927 12.06-2.836 4.875-3.461 7.396-2.158 8.7.43.43.993.65 1.729.65 1.494 0 3.704-.908 6.97-2.808 3.633-2.113 8.11-5.202 12.06-7.928 1.28-.883 2.49-1.718 3.647-2.504 2.52-1.713 3.898-3.635 4.094-5.713.084-.882-.042-1.773-.38-2.682L35 9.848zm-9.032-6.6L27.105 4l-3.064 3.554a12.55 12.55 0 00-.342-.247l2.27-4.058zm.94 12.553c-.13 1.379-1.179 2.745-3.118 4.063-.704.48-1.406.96-2.108 1.444l-3.017-3.017-1.591 1.591 2.724 2.725a633.81 633.81 0 01-3.897 2.674l-1.05-1.05-1.592 1.591.74.74c-1.843 1.227-3.63 2.377-5.284 3.358-1.82 1.08-3.323 1.857-4.468 2.312-1.272.505-1.814.498-1.986.472-.025-.171-.032-.713.473-1.986.454-1.144 1.232-2.648 2.311-4.467.629-1.06 1.327-2.174 2.07-3.322l.523.524L9.23 21.86l-.853-.853c.442-.663.887-1.325 1.335-1.984l2.92 2.92 1.592-1.592-3.22-3.219 1.354-1.965 1.783 1.782 1.592-1.592-2.075-2.075c.451-.655.901-1.312 1.349-1.97l4.128 4.128 1.592-1.591-4.304-4.304c.9-.903 1.818-1.402 2.74-1.49 1.485-.14 3.148.732 5.081 2.665 1.934 1.934 2.805 3.595 2.665 5.08zm-.976-6.574l-.096-.098-.098-.096 4.697-5.447.944.945-5.447 4.696zm1.479 1.697l3.57-3.077.804 1.219-4.073 2.278a12.184 12.184 0 00-.301-.42z" fill="#fff"/></g><defs><clipPath id="clip0_278_1530"><path fill="#fff" d="M0 0h35v35H0z"/></clipPath></defs></svg>