<svg width="35" height="35" fill="none" xmlns="http://www.w3.org/2000/svg"><g clip-path="url(#clip0_113_2749)" fill="#569F4C"><path d="M33.333 17.73l-.071-.068.001-.002c-3.083-3.083-6.766-5.222-10.37-6.02-2.15-.477-4.133-.45-5.84.057l-6.341-6.341a4.074 4.074 0 00-.98-4.166A4.037 4.037 0 006.858 0a4.036 4.036 0 00-2.873 1.19 4.048 4.048 0 00-1.036 1.76A4.043 4.043 0 001.19 3.984 4.034 4.034 0 000 6.857a4.04 4.04 0 001.19 2.874 4.046 4.046 0 004.167.98l6.34 6.34c-.505 1.708-.533 3.691-.056 5.841.798 3.604 2.936 7.287 6.02 10.37h.001l.069.07c1.098 1.1 2.602 1.667 4.346 1.667.619 0 1.268-.071 1.94-.216 2.385-.515 4.812-1.912 6.834-3.933 2.021-2.021 3.418-4.448 3.932-6.833.554-2.566.039-4.798-1.45-6.287zM5.77 7.897l-.768.475c-.696.43-1.62.323-2.198-.255a1.769 1.769 0 01-.522-1.26c0-.476.185-.923.523-1.26a1.772 1.772 0 011.182-.52l1.048-.044.044-1.048c.018-.452.198-.86.52-1.182a1.77 1.77 0 011.259-.52c.477 0 .924.185 1.26.521.336.336.522.783.522 1.258 0 .334-.092.658-.266.937l-.477.77 6.951 6.951a7.645 7.645 0 00-2.127 2.127L5.77 7.897zm10.51 19.149c-.051.238-.094.477-.128.718-1.104-1.748-1.886-3.573-2.283-5.366-.665-3-.16-5.524 1.423-7.107 1.583-1.582 4.107-2.088 7.107-1.423 1.793.398 3.617 1.18 5.366 2.283-.241.035-.48.077-.719.129-2.385.514-4.811 1.911-6.833 3.933-2.021 2.021-3.418 4.448-3.933 6.833zm12.957 2.19c-1.715 1.715-3.74 2.893-5.701 3.316-1.781.384-3.27.088-4.192-.834-2.008-2.008-.87-6.538 2.483-9.892 2.227-2.227 4.973-3.476 7.155-3.476 1.103 0 2.063.32 2.737.994 2.008 2.008.871 6.538-2.482 9.892z"/><path d="M29.114 21.95c-1.456-1.457-4.17-1.024-6.18.984-2.008 2.009-2.44 4.723-.984 6.18.58.58 1.36.86 2.217.86 1.291 0 2.754-.638 3.962-1.846 2.009-2.008 2.441-4.722.985-6.179zm-2.599 4.565c-1.201 1.201-2.55 1.386-2.951.985-.401-.401-.217-1.75.985-2.952.832-.832 1.734-1.176 2.344-1.176.27 0 .484.068.607.191.401.401.217 1.75-.985 2.952z"/></g><defs><clipPath id="clip0_113_2749"><path fill="#fff" d="M0 0h35v35H0z"/></clipPath></defs></svg>