<svg width="35" height="35" fill="none" xmlns="http://www.w3.org/2000/svg"><g clip-path="url(#clip0_113_2760)"><path d="M35 9.848l-2.3-3.483 1.985-1.712L30.312.28l-1.725 2.001-3.4-2.246-3.465 6.195c-.939-.363-1.86-.5-2.77-.414-2.078.196-4 1.574-5.713 4.094a584.453 584.453 0 01-2.504 3.646c-2.725 3.95-5.815 8.427-7.927 12.06-2.836 4.876-3.461 7.396-2.158 8.7.43.43.993.65 1.729.65 1.494 0 3.704-.908 6.97-2.808 3.633-2.112 8.11-5.202 12.06-7.928 1.28-.883 2.49-1.717 3.647-2.503 2.52-1.713 3.898-3.635 4.094-5.713.084-.882-.042-1.773-.38-2.682L35 9.848zm-9.032-6.599L27.105 4l-3.064 3.555a12.55 12.55 0 00-.342-.247l2.27-4.059zm.94 12.553c-.13 1.378-1.179 2.745-3.118 4.063-.704.479-1.406.96-2.108 1.443l-3.017-3.017-1.591 1.592 2.724 2.725a633.81 633.81 0 01-3.897 2.673l-1.05-1.05-1.592 1.592.74.739c-1.843 1.227-3.63 2.377-5.284 3.358-1.82 1.08-3.323 1.858-4.468 2.312-1.272.505-1.814.498-1.986.473-.025-.172-.032-.714.473-1.986.454-1.145 1.232-2.648 2.311-4.468.629-1.06 1.327-2.173 2.07-3.321l.523.523 1.592-1.591-.853-.853c.442-.664.887-1.325 1.335-1.984l2.92 2.92 1.592-1.592-3.22-3.22 1.354-1.965 1.783 1.783 1.592-1.592-2.075-2.075c.451-.656.901-1.312 1.349-1.97l4.128 4.128 1.592-1.592-4.304-4.304c.9-.902 1.818-1.402 2.74-1.489 1.485-.141 3.148.731 5.081 2.665 1.934 1.933 2.805 3.595 2.665 5.08zm-.976-6.575l-.096-.097-.098-.096 4.697-5.448.944.945-5.447 4.696zm1.479 1.698l3.57-3.078.804 1.22-4.073 2.277a12.278 12.278 0 00-.301-.42z" fill="#569F4C"/></g><defs><clipPath id="clip0_113_2760"><path fill="#fff" d="M0 0h35v35H0z"/></clipPath></defs></svg>