<svg xmlns="http://www.w3.org/2000/svg" width="35" height="35" fill="none"><g opacity=".5" clip-path="url(#clip0_113_2757)"><path d="M18.46.49l-.358.208a9.947 9.947 0 00-3.748-.67c-4.231.048-7.637 2.577-9.748 4.69C.773 8.555-.014 12.108 0 14.413a9.52 9.52 0 00.74 3.669l-.197.34 21.749 16.551.426-.584c2.108-.363 4.828-2.02 7.254-4.448 2.426-2.427 4.082-5.15 4.444-7.259l.584-.427L18.46.49zM2.378 15.73a7.707 7.707 0 01-.124-1.458C2.28 11.584 3.607 8.905 6.2 6.311c2.599-2.601 5.309-3.956 8.055-4.028a8.138 8.138 0 011.462.092 16.37 16.37 0 00-1.468 1.429c-.486-.045-.973.081-1.35.18-.185.047-.36.093-.511.119a2.947 2.947 0 01-.395-.033c-.51-.061-1.21-.145-1.908.214-.548.282-.855.769-1.102 1.16-.112.178-.252.4-.34.467-.066.043-.297.108-.45.15-.458.129-1.029.288-1.492.752-.464.463-.624 1.034-.752 1.493-.043.153-.107.383-.148.446-.07.091-.29.231-.47.344-.39.247-.877.554-1.159 1.102-.36.698-.275 1.397-.214 1.908.016.13.04.329.034.389a6.378 6.378 0 01-.12.517c-.098.374-.224.857-.18 1.34a16.36 16.36 0 00-1.314 1.378zm10.02-9.375a11.833 11.833 0 00-1.226 3.118c-.11.467-.188.94-.236 1.418-1.802.179-3.37.777-4.693 1.549a5.485 5.485 0 00-.048-.604c-.02-.168-.057-.472-.029-.584.07-.064.248-.176.368-.252.332-.21.746-.47 1.062-.888.295-.389.421-.838.522-1.2.048-.17.12-.428.176-.506.078-.056.335-.128.507-.176.36-.101.81-.227 1.199-.522.417-.316.678-.73.888-1.062.076-.12.188-.297.252-.368.113-.029.416.008.585.028.208.025.436.052.673.049zm9.369 25.387L3.547 17.877c1.065-1.42 3.619-4.241 7.39-4.72.226 2.245 1.11 4.545 2.652 6.873 2.243 3.388 5.094 5.413 8.474 6.018.599.107 1.191.165 1.775.183-.407 2.35-1.413 4.375-2.072 5.51zm6.613-3.394c-1.354 1.355-2.69 2.336-3.844 2.971.653-1.381 1.323-3.192 1.602-5.214 2.02-.277 3.829-.948 5.21-1.602-.635 1.154-1.615 2.491-2.968 3.845zm-5.919-4.517c-2.75-.493-5.104-2.19-6.993-5.044-2.036-3.077-2.745-6.032-2.108-8.783.758-3.27 3.252-5.52 4.56-6.505L31.773 21.73c-1.714.999-5.457 2.791-9.313 2.1z" fill="#569F4C"/></g><defs><clipPath id="clip0_113_2757"><path fill="#fff" d="M0 0h35v35H0z"/></clipPath></defs></svg>