<svg width="35" height="35" fill="none" xmlns="http://www.w3.org/2000/svg"><g fill="#569F4C"><path d="M13.264 16.358h8.47v2.283h-8.47v-2.283z"/><path d="M35 17.5c0-1.652-1.307-2.314-2.088-2.71a7.206 7.206 0 01-.48-.259c.053-.042.11-.085.157-.12.55-.414 1.695-1.275 1.216-3.026-.455-1.663-1.83-1.908-2.567-2.04-.534-.096-.632-.138-.672-.225l-.005-.01c.031-.107.204-.345.32-.505.427-.591 1.316-1.822.274-3.31-.428-.61-1.351-1.267-3.329-.928-3.053.523-7.811 3.397-9.446 7.558h-1.76c-1.635-4.16-6.393-7.035-9.447-7.558-1.977-.339-2.9.317-3.328.928-1.042 1.488-.153 2.719.275 3.31.115.16.288.398.319.505l-.005.01c-.04.087-.138.13-.672.225-.738.132-2.112.377-2.567 2.04-.479 1.75.666 2.612 1.216 3.026l.158.12c-.14.086-.335.185-.481.26C1.308 15.185 0 15.847 0 17.5c0 1.652 1.307 2.314 2.088 2.71.146.074.341.173.48.259-.053.042-.11.085-.157.12-.55.414-1.695 1.275-1.216 3.026.455 1.663 1.83 1.908 2.567 2.04.534.095.632.138.672.225a.263.263 0 01.005.01c-.031.107-.204.345-.32.505-.427.591-1.316 1.822-.274 3.31.347.495 1.02 1.02 2.317 1.02.302 0 .638-.028 1.011-.092 3.054-.523 7.812-3.397 9.447-7.558h1.76c1.635 4.161 6.393 7.035 9.446 7.558 1.978.339 2.901-.317 3.329-.927 1.042-1.489.152-2.72-.275-3.31-.116-.161-.288-.4-.319-.506l.005-.01c.04-.087.138-.13.672-.225.738-.132 2.112-.377 2.567-2.04.479-1.75-.666-2.612-1.216-3.026l-.158-.12c.14-.086.335-.185.48-.26C33.694 19.815 35 19.153 35 17.5zm-3.12.673c-.662.336-1.664.844-1.83 1.998-.179 1.23.697 1.888 1.167 2.242.456.344.456.344.387.6-.066.24-.075.271-.768.395-.668.12-1.788.32-2.34 1.511-.586 1.262.115 2.233.534 2.813.116.16.308.426.329.53a.458.458 0 01-.058.11c-.143.075-.853.206-2.32-.327-2.707-.983-5.871-3.503-6.682-6.417l-.233-.836h-5.132l-.233.836c-.811 2.914-3.975 5.434-6.682 6.417-1.467.532-2.177.402-2.32.327a.454.454 0 01-.058-.11c.02-.104.213-.37.329-.53.419-.58 1.12-1.55.535-2.813-.553-1.191-1.673-1.391-2.341-1.51-.693-.124-.702-.156-.767-.396-.07-.256-.07-.256.386-.6.47-.354 1.346-1.012 1.168-2.24-.167-1.156-1.169-1.664-1.832-2-.727-.368-.836-.48-.836-.673 0-.194.11-.305.836-.673.663-.336 1.665-.844 1.832-1.999.178-1.229-.698-1.887-1.168-2.241-.456-.344-.456-.344-.386-.6.065-.24.074-.271.767-.395.669-.12 1.788-.32 2.34-1.511.586-1.262-.115-2.233-.534-2.813-.116-.16-.308-.426-.329-.53a.454.454 0 01.058-.11c.143-.075.854-.206 2.32.327 2.707.983 5.871 3.503 6.682 6.417l.233.835h5.132l.233-.835c.81-2.914 3.975-5.434 6.682-6.417 1.466-.533 2.177-.402 2.32-.327a.5.5 0 01.058.11c-.021.104-.213.37-.329.53-.419.58-1.12 1.55-.535 2.813.553 1.191 1.672 1.391 2.341 1.51.693.125.702.156.767.396.07.256.07.256-.386.6-.47.354-1.346 1.012-1.168 2.24.167 1.156 1.169 1.664 1.832 2 .727.368.836.48.836.673 0 .193-.11.305-.836.673z"/></g></svg>