<svg xmlns="http://www.w3.org/2000/svg" width="35" height="35" fill="none"><g clip-path="url(#clip0_278_1527)"><path d="M18.46.49l-.358.208a9.947 9.947 0 00-3.748-.67c-4.231.048-7.637 2.577-9.748 4.69C.773 8.553-.014 12.106 0 14.412a9.52 9.52 0 00.74 3.668l-.197.34 21.749 16.552.426-.584c2.108-.363 4.828-2.02 7.254-4.448 2.426-2.428 4.082-5.15 4.444-7.259l.584-.427L18.46.489zM2.378 15.73a7.707 7.707 0 01-.124-1.459c.026-2.688 1.353-5.366 3.946-7.96 2.599-2.601 5.309-3.957 8.055-4.028a8.138 8.138 0 011.462.092 16.37 16.37 0 00-1.468 1.429c-.486-.046-.973.08-1.35.179-.185.048-.36.094-.511.12a3.125 3.125 0 01-.395-.033c-.51-.062-1.21-.146-1.908.214-.548.282-.855.769-1.102 1.16-.112.178-.252.4-.34.466-.066.044-.297.108-.45.15-.458.129-1.029.289-1.492.752-.464.464-.624 1.035-.752 1.493-.043.153-.107.384-.148.446-.07.092-.29.232-.47.344-.39.247-.877.554-1.159 1.102-.36.699-.275 1.398-.214 1.908.016.131.04.329.034.39a6.378 6.378 0 01-.12.516c-.098.375-.224.857-.18 1.34a16.14 16.14 0 00-1.314 1.379zm10.02-9.376a11.833 11.833 0 00-1.226 3.118c-.11.467-.188.941-.236 1.418-1.802.18-3.37.778-4.693 1.55a5.48 5.48 0 00-.048-.604c-.02-.169-.057-.472-.029-.584.07-.065.248-.176.368-.252.332-.21.746-.47 1.062-.888.295-.39.421-.838.522-1.2.048-.171.12-.429.176-.507.078-.055.335-.127.507-.176.36-.1.81-.226 1.199-.521.417-.317.678-.73.888-1.062.076-.12.188-.298.252-.368.113-.03.416.008.585.028.208.025.436.052.673.048zm9.369 25.387L3.547 17.877c1.065-1.42 3.619-4.242 7.39-4.72.226 2.245 1.11 4.544 2.652 6.872 2.243 3.389 5.094 5.413 8.474 6.018.599.107 1.191.165 1.775.183-.407 2.35-1.413 4.375-2.072 5.511zm6.613-3.393c-1.354 1.355-2.69 2.336-3.844 2.97.653-1.38 1.323-3.192 1.602-5.213 2.02-.278 3.829-.948 5.21-1.603-.635 1.155-1.615 2.492-2.968 3.846zm-5.92-4.518c-2.75-.492-5.104-2.19-6.993-5.044-2.036-3.076-2.745-6.031-2.108-8.783.758-3.27 3.252-5.519 4.56-6.505L31.773 21.73c-1.714.998-5.457 2.79-9.313 2.1z" fill="#fff"/></g><defs><clipPath id="clip0_278_1527"><path fill="#fff" d="M0 0h35v35H0z"/></clipPath></defs></svg>