<svg width="40" height="40" fill="none" xmlns="http://www.w3.org/2000/svg"><g fill="#fff"><path d="M34.759 16.34c-1.508-4.537-5.038-8.077-9.4-9.685.123-.746.188-1.516.188-2.28 0-.795-.78-1.362-1.54-1.112-.018.005-1.747.565-4.007.565-2.564 0-3.982 1.424-4.588 2.565-4.865 1.5-8.6 5.27-10.161 9.947A4.926 4.926 0 000 21.25a4.926 4.926 0 005.248 4.91C7.308 32.334 13.143 36.797 20 36.797c6.857 0 12.691-4.463 14.752-10.636A4.926 4.926 0 0040 21.25a4.926 4.926 0 00-5.241-4.912zM20 6.171c1.21 0 2.285-.136 3.104-.287-.25 1.93-1.15 4.818-3.104 4.818-1.715 0-2.365-2.36-2.538-3.174.204-.421.85-1.357 2.538-1.357zM2.344 21.25a2.582 2.582 0 012.322-2.565 15.556 15.556 0 000 5.13 2.582 2.582 0 01-2.322-2.565zM20 34.453c-7.28 0-13.203-5.923-13.203-13.203 0-5.55 3.479-10.474 8.597-12.376.708 2.288 2.214 4.173 4.606 4.173 2.37 0 3.945-1.819 4.775-4.109 5.015 1.95 8.428 6.857 8.428 12.312 0 7.28-5.923 13.203-13.203 13.203zm15.334-10.638c.282-1.698.284-3.431.004-5.13a2.582 2.582 0 012.318 2.565 2.582 2.582 0 01-2.322 2.566z"/><path d="M24.456 23.942a1.172 1.172 0 00-1.56.555A3.22 3.22 0 0120 26.328a3.22 3.22 0 01-2.895-1.831 1.172 1.172 0 10-2.117 1.006A5.575 5.575 0 0020 28.672a5.575 5.575 0 005.012-3.17 1.172 1.172 0 00-.556-1.56zm-.08-6.989c-1.283 0-2.442.77-2.953 1.96a1.172 1.172 0 002.154.924.86.86 0 011.596 0 1.172 1.172 0 002.154-.924 3.216 3.216 0 00-2.952-1.96zm-7.953 2.884a1.172 1.172 0 002.154-.924 3.216 3.216 0 00-2.952-1.96c-1.282 0-2.44.77-2.952 1.96a1.172 1.172 0 002.154.924.86.86 0 011.596 0z"/></g></svg>