<svg width="35" height="35" fill="none" xmlns="http://www.w3.org/2000/svg"><g fill="#fff"><path d="M15.374 7.035l-.519-3.648L5.212 0l-.758 2.158 8.333 2.927.277 1.95H8.12L10.904 35h16.859l2.784-27.965H15.374zM10.645 9.32h2.744l.984 6.917h-3.039l-.689-6.917zm15.047 23.392H12.974l-1.412-14.188h15.543l-1.413 14.188zm1.64-16.475h-10.65L15.7 9.321h12.322l-.689 6.917z"/><path d="M14.325 20.276a.74.74 0 100 1.482.741.741 0 100-1.482zm7.42 3.045a.741.741 0 10-.002 1.483.741.741 0 00.001-1.483zm2.616-3.786a.74.74 0 00-.742.741.742.742 0 10.742-.74zm-7.187 5.699a.74.74 0 100 1.483.742.742 0 100-1.483zm-.741 4.434a.74.74 0 100 1.482.742.742 0 000-1.482zm7.186-.742a.741.741 0 10-.001 1.483.741.741 0 00.001-1.483z"/></g></svg>