<svg width="35" height="35" fill="none" xmlns="http://www.w3.org/2000/svg"><g fill="#569F4C"><path d="M15.373 7.035l-.518-3.648L5.21 0l-.757 2.158 8.333 2.927.277 1.95H8.119L10.903 35h16.86l2.783-27.965H15.374zM10.646 9.32h2.744l.984 6.917h-3.04l-.688-6.917zm15.047 23.392H12.974L11.56 18.525h15.543l-1.412 14.188zm1.64-16.475h-10.65L15.7 9.321h12.32l-.69 6.917z"/><path d="M14.324 20.276a.74.74 0 100 1.482.741.741 0 100-1.482zm7.42 3.045a.741.741 0 10-.002 1.483.741.741 0 00.002-1.483zm2.616-3.786a.739.739 0 00-.741.741.742.742 0 10.741-.74zm-7.186 5.699a.74.74 0 100 1.48.74.74 0 000-1.48zm-.741 4.434a.74.74 0 100 1.482.742.742 0 100-1.482zm7.186-.742a.742.742 0 10-.001 1.485.742.742 0 000-1.485z"/></g></svg>