<svg width="35" height="35" fill="none" xmlns="http://www.w3.org/2000/svg"><g opacity=".5" clip-path="url(#clip0_113_2767)" fill="#569F4C"><path d="M33.547 9.998c-1.114-1.876-2.678-3.66-3.735-4.595-2.306-2.044-4.23-1.994-5.172-1.782a3.561 3.561 0 00-1.08.43c-1.642-1.219-3.641-1.816-6.06-1.816-2.419 0-4.418.597-6.061 1.817a3.56 3.56 0 00-1.079-.431c-.941-.212-2.866-.262-5.172 1.782-1.056.936-2.621 2.72-3.735 4.595-1.508 2.539-1.844 4.593-.999 6.104 1.033 1.846 2.599 2.319 3.863 2.435-.31 1.207-.502 2.498-.502 4.107 0 2.132.485 3.967 1.442 5.452.842 1.306 2.053 2.352 3.601 3.11 2.86 1.397 6.302 1.559 8.642 1.559s5.782-.162 8.642-1.56c1.547-.756 2.76-1.802 3.6-3.109.958-1.486 1.444-3.32 1.444-5.452 0-1.609-.192-2.9-.503-4.107 1.264-.116 2.83-.589 3.863-2.435.845-1.511.51-3.565-.999-6.104zm-28.565 6.43c-1.119-.03-2.029-.247-2.658-1.371-.427-.763-.073-2.209.97-3.965.991-1.668 2.413-3.287 3.315-4.086 1.49-1.32 2.605-1.392 3.13-1.322-1.562 1.906-2.52 4.382-3.322 6.79a71.213 71.213 0 01-.96 2.672c-.166.44-.325.864-.475 1.281zm11.12 7.023c-.554-.554-.844-1.135-.844-1.424 0-.257.044-.275.208-.344.467-.197 1.385-.22 2.034-.22.65 0 1.567.023 2.034.22.164.069.208.087.208.345 0 .288-.29.869-.844 1.423-.546.545-1.127.838-1.398.838-.27 0-.853-.293-1.398-.838zm9.099 5.83c-1.644.803-3.82 1.239-6.63 1.325v-4.388c.841-.325 1.526-.937 1.841-1.252.443-.442 1.472-1.614 1.472-2.938 0-1.084-.54-1.908-1.52-2.32-.652-.275-1.482-.387-2.864-.387-1.381 0-2.211.112-2.865.387-.98.412-1.52 1.236-1.52 2.32 0 1.324 1.03 2.496 1.473 2.938.315.315 1 .927 1.84 1.252v4.388c-2.808-.086-4.985-.522-6.629-1.326-2.585-1.263-3.842-3.434-3.842-6.636 0-2.74.631-4.42 1.505-6.745.301-.803.643-1.713.988-2.748 1.893-5.69 3.896-8.774 9.05-8.774 5.154 0 7.157 3.084 9.05 8.773.345 1.036.687 1.946.988 2.75.874 2.324 1.505 4.004 1.505 6.744 0 3.202-1.257 5.373-3.842 6.637zm7.475-14.224c-.63 1.124-1.539 1.34-2.658 1.37a93.76 93.76 0 00-.474-1.281 71.47 71.47 0 01-.961-2.672c-.801-2.408-1.76-4.884-3.323-6.79.526-.07 1.642.002 3.131 1.322.902.799 2.324 2.418 3.314 4.085 1.044 1.758 1.398 3.203.97 3.966z"/><path d="M13.935 13.621c-.775 0-1.406.637-1.406 1.424 0 .787.631 1.424 1.406 1.424.776 0 1.407-.638 1.407-1.424 0-.787-.63-1.424-1.407-1.424zm7.12-.011c-.783 0-1.418.642-1.418 1.435s.635 1.435 1.417 1.435 1.417-.643 1.417-1.435c0-.793-.635-1.435-1.417-1.435z"/></g><defs><clipPath id="clip0_113_2767"><path fill="#fff" d="M0 0h35v35H0z"/></clipPath></defs></svg>