<svg width="35" height="35" fill="none" xmlns="http://www.w3.org/2000/svg"><g opacity=".5" clip-path="url(#clip0_113_2739)"><path d="M29.34 9.186c-1.677-2.662-4.343-4.582-7.622-5.494A4.261 4.261 0 0017.5 0a4.261 4.261 0 00-4.217 3.692c-3.28.912-5.946 2.832-7.623 5.494a6.33 6.33 0 00-5.65 6.286c0 3.185 2.368 5.826 5.435 6.258L8.082 35h18.836l2.637-13.27c3.068-.432 5.436-3.073 5.436-6.258a6.33 6.33 0 00-5.651-6.286zM17.5 2.283c1.088 0 1.973.885 1.973 1.973A1.975 1.975 0 0117.5 6.229a1.976 1.976 0 01-1.973-1.973c0-1.088.885-1.973 1.973-1.973zM9.956 32.717l-2.188-11.01c1.283-.164 2.17-.532 2.75-.88.36.246.745.45 1.15.613l.702 11.277H9.956zm10.388 0h-5.687l-.678-10.871c1.658-.037 2.812-.545 3.521-1.006.71.46 1.864.97 3.521 1.006l-.677 10.871zm4.7 0h-2.413l.702-11.277a6.03 6.03 0 001.146-.61c.53.331 1.854.764 2.753.877l-2.188 11.01zm3.625-13.206c-2.303 0-3.187-.735-3.318-.858l-.748-1.186-.984 1.136c-.08.082-.964.964-2.411.964-1.87 0-2.738-.832-2.843-.94l-.837-1.134-.891 1.133c-.098.1-.966.94-2.845.94-1.436 0-2.319-.868-2.409-.96l-.917-1.196-.816 1.242c-.126.119-1.008.859-3.32.859a4.043 4.043 0 01-4.038-4.039 4.044 4.044 0 014.039-4.039H7l.326-.585c1.6-2.867 4.138-4.23 6.28-4.875A4.261 4.261 0 0017.5 8.512a4.261 4.261 0 003.893-2.539c2.142.646 4.68 2.008 6.28 4.875l.326.585h.67a4.043 4.043 0 014.04 4.04 4.043 4.043 0 01-4.04 4.038z" fill="#569F4C"/></g><defs><clipPath id="clip0_113_2739"><path fill="#fff" d="M0 0h35v35H0z"/></clipPath></defs></svg>