<svg width="35" height="35" fill="none" xmlns="http://www.w3.org/2000/svg"><g clip-path="url(#clip0_278_1492)"><path d="M34.51 20.862c-.58-2.087-1.527-4.047-2.052-5.05.367-1.353-1.027-2.765-1.51-3.255-.946-.957-2.255-1.96-3.502-2.681a17.53 17.53 0 00-3.14-1.411c-.44-.592-1.28-1.067-2.513-1.42-1.265-.362-2.87-.578-4.293-.578s-3.028.216-4.293.578c-1.233.353-2.072.828-2.512 1.42-1.054.35-2.177.853-3.142 1.411-1.246.721-2.554 1.724-3.5 2.681-.484.49-1.88 1.903-1.511 3.255-.525 1.004-1.473 2.963-2.052 5.05-.826 2.977-.607 5.167.65 6.51.715.764 1.609 1.162 2.598 1.162.081 0 .163-.003.246-.008 2.392-.157 4.695-2.57 5.9-4.064.222.062.457.095.71.095.85 0 1.882-.356 3.125-1.075l.161-.096c.739.616 1.927.917 3.62.917 1.694 0 2.882-.301 3.62-.917l.162.096c1.243.719 2.275 1.075 3.125 1.075.252 0 .487-.033.708-.095 1.206 1.494 3.508 3.907 5.9 4.064.084.005.165.008.247.008.99 0 1.883-.399 2.598-1.162 1.257-1.343 1.476-3.533.65-6.51zM3.835 26.248c-.405.027-.721-.108-1.028-.436-.657-.702-.699-2.243-.117-4.34.35-1.264.855-2.483 1.294-3.427a90.361 90.361 0 001.925 2.446c.952 1.166 1.66 1.98 2.191 2.55-1.318 1.636-3.008 3.125-4.265 3.207zm8.74-4.742c-1.13.654-1.776.776-2.004.768-.316-.254-1.26-1.21-3.075-3.45-1.373-1.692-2.373-3.049-2.697-3.553.283-.654 1.937-2.284 3.898-3.42a15.23 15.23 0 011.819-.885c.275 1.6.795 4.02 1.114 5.431.549 2.43.943 3.959 1.235 4.935-.096.06-.193.117-.29.174zm7.048.155c-.198.13-.817.36-2.123.36-1.305 0-1.923-.23-2.123-.36-.587-1.317-2.557-10.16-2.748-11.928.564-.417 2.708-.983 4.871-.983 2.163 0 4.307.566 4.87.983-.192 1.778-2.16 10.613-2.747 11.928zm4.806.613c-.229.008-.874-.115-2.003-.768a11.033 11.033 0 01-.29-.174c.291-.976.686-2.505 1.235-4.935.318-1.41.838-3.831 1.114-5.431.63.258 1.262.564 1.818.886 1.962 1.135 3.616 2.766 3.898 3.42-.323.502-1.323 1.86-2.696 3.553-1.816 2.238-2.76 3.195-3.076 3.45zm7.765 3.538c-.308.328-.624.463-1.029.436-1.257-.083-2.947-1.57-4.265-3.208.532-.57 1.239-1.383 2.192-2.55a88.74 88.74 0 001.924-2.445c.44.944.944 2.163 1.294 3.427.582 2.097.54 3.638-.116 4.34z" fill="#fff"/></g><defs><clipPath id="clip0_278_1492"><path fill="#fff" d="M0 0h35v35H0z"/></clipPath></defs></svg>