<svg xmlns="http://www.w3.org/2000/svg" width="207" height="60" fill="none"><path d="M7.864 24.498h27.848l-1.013 1.78a3.382 3.382 0 00-.003 3.346c.29.51.706.932 1.208 1.226.502.294 1.591-2.29 2.17-2.29.581 0 .632 2.585 1.135 2.291a3.341 3.341 0 001.213-1.224l2.92-5.129h23.293c.83.003 1.624.338 2.21.932.587.595.918 1.4.92 2.241v4.45a3.204 3.204 0 01-.919 2.242 3.118 3.118 0 01-2.211.933h-.216L64.638 56.68a3.353 3.353 0 01-.963 2.345 3.262 3.262 0 01-2.313.975h-48.36a3.262 3.262 0 01-2.313-.975 3.353 3.353 0 01-.962-2.345L8.08 35.296h-.216a3.118 3.118 0 01-2.211-.932 3.204 3.204 0 01-.92-2.241V27.67c.003-.84.333-1.646.92-2.24a3.118 3.118 0 012.21-.933zm48.528 30.87s-2.924.805-2.637 1.096c.287.29.675.455 1.08.456h.026a1.525 1.525 0 001.082-.456c.286-.29.448-.685.45-1.096v-17.66a1.567 1.567 0 00-.45-1.097 1.525 1.525 0 00-1.082-.455h-.025a1.525 1.525 0 00-1.081.456c-.287.29 2.638 7.75 2.637 8.161v10.595zm-14.233 0c.002.411.163.805.45 1.096.287.29.675.455 1.081.456h.025a1.525 1.525 0 001.081-.456c.287-.29.449-.685.45-1.096v-17.66a1.567 1.567 0 00-.45-1.097 1.525 1.525 0 00-1.08-.455h-.026a1.525 1.525 0 00-1.08.456c-.287.29-.448.684-.45 1.095v17.661zm-11.146 0c.001.411.163.805.45 1.096.287.29.675.455 1.08.456h.026a1.525 1.525 0 001.08-.456c.287-.29.45-.685.45-1.096v-17.66a1.567 1.567 0 00-.45-1.097 1.525 1.525 0 00-1.08-.455h-.026a1.525 1.525 0 00-1.081.455 1.567 1.567 0 00-.45 1.096l.001 17.661zm-11.146 0c.002.411.163.805.45 1.096.287.29.675.455 1.08.456h.026a1.525 1.525 0 001.082-.456c.286-.29.448-.685.45-1.096v-17.66a1.567 1.567 0 00-.45-1.097 1.525 1.525 0 00-1.082-.455h-.025a1.525 1.525 0 00-1.081.456c-.287.29-.448.684-.45 1.095v17.661z" fill="#569F4C"/><path d="M59.918 35.087H13.76L12.485 58.13h48.572l-1.139-23.044zM31.075 24.498h15.847v6.436H31.075v-6.436z" fill="#569F4C"/><path d="M36.684 33.305a2.322 2.322 0 001.81.244 2.405 2.405 0 001.449-1.147L55.957 3.7c.315-.567.4-1.24.236-1.872a2.464 2.464 0 00-1.11-1.5 2.323 2.323 0 00-1.809-.244c-.61.17-1.131.582-1.45 1.148l-16.013 28.7a2.557 2.557 0 00-.237 1.874 2.464 2.464 0 001.11 1.5zM21.4 25.603a8.362 8.362 0 00.087-4.907 8.109 8.109 0 00-2.67-4.057 7.941 7.941 0 012.117-2.387 7.644 7.644 0 012.856-1.328 7.514 7.514 0 013.131-.053 7.625 7.625 0 012.897 1.23 7.916 7.916 0 012.192 2.314 8.206 8.206 0 011.13 3.022 8.312 8.312 0 01-.114 3.238 8.163 8.163 0 01-1.34 2.928H21.4zm46.84 0h-6.68a5.742 5.742 0 00-1.43-1.378l.714-3.376c1.316-.015 2.137-.507 2.137-.507a5.926 5.926 0 00-1.641-1.84l.737-3.498c1.202-.057 1.941-.501 1.941-.501a5.974 5.974 0 00-1.47-1.713l.34-1.615a4.083 4.083 0 011.722-2.553 3.834 3.834 0 012.96-.554l.339.077a3.947 3.947 0 012.467 1.781 4.2 4.2 0 01.535 3.064l-2.67 12.613z" fill="#569F4C"/><path d="M7.872 25.603a7.01 7.01 0 01-.412-3.665c-9.182-1.476-7.3-8.76-7.3-8.76 6.222-.998 8.825 1.658 9.9 4.342a6.446 6.446 0 014.003-1.331 6.457 6.457 0 013.966 1.443 6.844 6.844 0 012.319 3.63 7.047 7.047 0 01-.273 4.341H7.872zm37.303 0l3.912-7.012 6.956 2.032-2.884 4.98h-7.984z" fill="#569F4C"/><path d="M58.561 25.603h-3.95l3.337-5.763-7.353-2.148a6.89 6.89 0 011.561-2.904 6.574 6.574 0 012.702-1.797 6.385 6.385 0 013.202-.262A6.485 6.485 0 0161 14.063l-2.44 11.54zm-25.38 0a9.563 9.563 0 001.257-5.722 9.456 9.456 0 00-2.304-5.363v-.69c0-2.713 2.023-4.962 4.584-5.214v-2.03a.993.993 0 01.276-.686.926.926 0 01.663-.285h2.016a.927.927 0 01.662.286.991.991 0 01.276.685v2.03a4.982 4.982 0 012.383.9 5.215 5.215 0 011.666 1.981l-7.873 14.108h-3.606z" fill="#569F4C"/><path d="M21.645 35.216c1.35 0 2.53.23 3.535.69 1.006.46 1.776 1.087 2.307 1.878.532.791.798 1.676.798 2.655 0 1.611-.503 2.877-1.51 3.798-1.005.907-2.716 1.36-5.13 1.36h-2.846v4.144a.56.56 0 01-.172.41.56.56 0 01-.41.173h-4.635a.56.56 0 01-.41-.173.56.56 0 01-.172-.41V35.799a.56.56 0 01.172-.41.56.56 0 01.41-.173h8.063zm-.086 6.388c.345 0 .618-.1.819-.302.201-.216.302-.496.302-.842 0-.36-.1-.654-.302-.885-.201-.23-.474-.345-.82-.345h-2.737v2.374h2.738zm23.684 8.051a.43.43 0 01.043.194c0 .13-.05.245-.15.345a.438.438 0 01-.324.13h-4.894c-.201 0-.388-.05-.56-.151a.896.896 0 01-.345-.389l-1.898-4.273h-1.81v4.23a.56.56 0 01-.173.41.56.56 0 01-.41.173h-4.656a.56.56 0 01-.41-.173.56.56 0 01-.172-.41V35.799a.56.56 0 01.172-.41.56.56 0 01.41-.173h8.386c1.294 0 2.422.209 3.385.626.977.417 1.724 1.021 2.242 1.813.517.791.776 1.72.776 2.784 0 1.957-.755 3.374-2.264 4.252l2.652 4.964zm-7.244-8.137c.316 0 .56-.1.733-.302.173-.216.259-.482.259-.799 0-.316-.086-.59-.259-.82-.158-.245-.402-.367-.733-.367h-2.695v2.288H38zm23.943 2.568c0 2.202-.733 3.828-2.199 4.878-1.451 1.05-3.392 1.576-5.82 1.576-2.43 0-4.377-.526-5.843-1.576-1.451-1.05-2.177-2.69-2.177-4.92v-2.548c0-1.467.345-2.683 1.035-3.647.704-.978 1.66-1.698 2.867-2.158 1.207-.46 2.58-.691 4.117-.691 1.538 0 2.904.23 4.097.69 1.207.461 2.163 1.173 2.867 2.137.704.964 1.056 2.173 1.056 3.626v2.633zm-10.218.41c0 .59.194 1.044.582 1.36.402.317.941.475 1.617.475.675 0 1.207-.158 1.595-.475.402-.33.603-.791.603-1.381v-3.41c0-.59-.2-1.043-.603-1.36-.388-.33-.92-.496-1.596-.496-.675 0-1.214.158-1.616.474-.388.317-.582.77-.582 1.36v3.453z" fill="#fff"/><path d="M83.637 35.216a.56.56 0 01.41.172.56.56 0 01.172.41v9.886h1.1a.56.56 0 01.41.172.56.56 0 01.172.41v6.151a.56.56 0 01-.173.41.56.56 0 01-.41.173h-3.492a.56.56 0 01-.41-.173.56.56 0 01-.172-.41v-2.093h-7.351v2.093a.56.56 0 01-.173.41.56.56 0 01-.41.173h-3.47a.56.56 0 01-.41-.173.517.517 0 01-.172-.41v-6.15a.56.56 0 01.172-.41.56.56 0 01.41-.173h.345c.474 0 .84-.41 1.1-1.23.258-.82.387-2.325.387-4.512V35.8a.56.56 0 01.173-.41.56.56 0 01.41-.173h11.382zm-6.79 5.158c0 1.18-.065 2.194-.195 3.043a8.875 8.875 0 01-.646 2.267h3.04V39.64h-2.2v.734zm25.99 3.712c0 2.202-.733 3.828-2.199 4.878-1.451 1.05-3.392 1.576-5.82 1.576-2.43 0-4.377-.526-5.843-1.576-1.451-1.05-2.177-2.69-2.177-4.92v-2.548c0-1.467.345-2.683 1.035-3.647.704-.978 1.66-1.698 2.867-2.158 1.207-.46 2.58-.691 4.118-.691 1.538 0 2.903.23 4.096.69 1.207.461 2.163 1.173 2.867 2.137.704.964 1.056 2.173 1.056 3.626v2.633zm-10.218.41c0 .59.194 1.044.582 1.36.402.317.941.475 1.617.475.675 0 1.207-.158 1.595-.475.402-.33.604-.791.604-1.381v-3.41c0-.59-.202-1.043-.604-1.36-.388-.33-.92-.496-1.595-.496-.676 0-1.215.158-1.617.474-.388.317-.582.77-.582 1.36v3.453zm17.454 0c0 .59.194 1.044.582 1.36.402.317.941.475 1.616.475.604 0 1.05-.1 1.337-.302.288-.202.532-.504.733-.907.187-.374.438-.56.755-.56h4.656c.13 0 .237.05.324.15.1.087.151.194.151.324 0 .878-.295 1.741-.884 2.59-.59.834-1.488 1.532-2.695 2.093-1.193.547-2.652.82-4.377.82-1.537 0-2.91-.23-4.117-.69-1.193-.475-2.142-1.194-2.846-2.158-.704-.979-1.056-2.195-1.056-3.648v-2.547c0-1.453.352-2.662 1.056-3.626.704-.978 1.653-1.697 2.846-2.158 1.207-.475 2.58-.712 4.117-.712 1.725 0 3.184.28 4.377.842 1.207.547 2.105 1.244 2.695 2.093.589.835.884 1.69.884 2.569 0 .13-.051.244-.151.345a.44.44 0 01-.324.13h-4.656c-.317 0-.568-.188-.755-.562-.201-.403-.445-.705-.733-.906-.287-.202-.733-.302-1.337-.302-.675 0-1.214.158-1.616.474-.388.317-.582.77-.582 1.36v3.453zm26.659-9.28c.158 0 .294.057.409.172a.561.561 0 01.173.41v3.475a.561.561 0 01-.173.41.558.558 0 01-.409.173h-4.635v9.885a.561.561 0 01-.173.41.558.558 0 01-.409.173h-4.441a.56.56 0 01-.41-.173.56.56 0 01-.172-.41v-9.885h-4.635a.559.559 0 01-.41-.172.561.561 0 01-.173-.41v-3.475a.56.56 0 01.173-.41.559.559 0 01.41-.173h14.875zm6.696 14.374c-.187.49-.51.734-.97.734h-4.075a.516.516 0 01-.345-.13.517.517 0 01-.129-.345l.022-.13 4.699-13.79a1.11 1.11 0 01.324-.497c.158-.144.373-.216.647-.216h5.993c.273 0 .488.072.647.216.158.143.265.309.323.496l4.7 13.791.021.13c0 .13-.05.245-.151.345a.438.438 0 01-.323.13h-4.075c-.46 0-.783-.245-.97-.734l-.539-1.51h-5.26l-.539 1.51zm3.169-10.209l-1.531 4.49h3.062l-1.531-4.49zm23.339 3.065c.561.173 1.042.554 1.445 1.144.402.575.603 1.237.603 1.985 0 1.598-.517 2.792-1.552 3.583-1.035.777-2.544 1.166-4.527 1.166h-8.882a.56.56 0 01-.41-.173.56.56 0 01-.172-.41V35.799a.56.56 0 01.172-.41.56.56 0 01.41-.173h8.666c2.041 0 3.543.374 4.506 1.122.977.734 1.466 1.85 1.466 3.346v.064c0 .69-.187 1.28-.56 1.77-.374.49-.762.798-1.165.928zm-4.117-2.568c0-.26-.079-.482-.237-.67-.144-.186-.36-.28-.647-.28h-2.889v1.964h2.889c.287 0 .503-.1.647-.302.158-.216.237-.453.237-.712zm-.647 6.733c.331 0 .575-.107.733-.323.172-.23.259-.482.259-.756v-.021a1.01 1.01 0 00-.281-.712c-.172-.202-.409-.303-.711-.303h-3.126v2.115h3.126zm24.741 2.957a.5.5 0 01.086.28c0 .13-.05.245-.151.346a.438.438 0 01-.323.13h-5.562c-.331 0-.59-.115-.777-.346l-3.32-4.813h-.646v4.576a.561.561 0 01-.173.41.558.558 0 01-.409.173h-4.441a.559.559 0 01-.41-.173.56.56 0 01-.172-.41V35.799a.56.56 0 01.172-.41.559.559 0 01.41-.173h4.441c.158 0 .294.057.409.172a.561.561 0 01.173.41v4.447h.474l3.147-4.662c.216-.245.482-.367.798-.367h5.196c.129 0 .237.05.323.15a.408.408 0 01.151.325.457.457 0 01-.108.302l-5.109 6.237 5.821 7.338z" fill="#569F4C"/><path d="M195.143 49.59c-.187.49-.51.734-.97.734h-4.075a.516.516 0 01-.345-.13.517.517 0 01-.129-.345l.022-.13 4.699-13.79c.058-.188.165-.354.324-.497.158-.144.373-.216.646-.216h5.994c.273 0 .488.072.646.216.158.143.266.309.324.496l4.699 13.791.022.13c0 .13-.05.245-.151.345a.438.438 0 01-.323.13h-4.075c-.46 0-.783-.245-.97-.734l-.539-1.51h-5.26l-.539 1.51zm3.169-10.209l-1.531 4.49h3.062l-1.531-4.49z" fill="#569F4C"/></svg>