<?xml version="1.0" encoding="utf-8"?><svg viewBox="0 0 32 32" xmlns="http://www.w3.org/2000/svg" xmlns:xlink="http://www.w3.org/1999/xlink"><style>:root>svg{display:none}:root>svg:target{display:block}</style><svg fill="none" viewBox="0 0 8 14" id="icon-arrow-back" xmlns="http://www.w3.org/2000/svg"><path d="M7.694.308a1.056 1.056 0 010 1.488l-5.172 5.21 5.172 5.21a1.057 1.057 0 01-.013 1.476 1.04 1.04 0 01-1.464.012L.306 7.75a1.056 1.056 0 010-1.488L6.216.308a1.041 1.041 0 011.478 0z" fill="currentColor"/></svg><svg fill="none" viewBox="0 0 32 32" id="icon-basket" xmlns="http://www.w3.org/2000/svg"><path d="M3.08 14.99a1.333 1.333 0 011.293-1.656h23.254a1.333 1.333 0 011.293 1.655l-2.415 9.658a2.667 2.667 0 01-2.586 2.02H8.08a2.667 2.667 0 01-2.586-2.02L3.08 14.99z" stroke="#8E8E8E" stroke-width="1.75" stroke-linejoin="round"/><path d="M12 18.667v2.666m8-2.666v2.666m-12-8l5.333-8m10.667 8l-5.333-8" stroke="#8E8E8E" stroke-width="1.75" stroke-linecap="round"/></svg><svg fill="none" viewBox="0 0 20 20" id="icon-call" xmlns="http://www.w3.org/2000/svg"><path d="M13.6 12.522c-2.394 2.52-8.503-3.534-6.1-6.064 1.469-1.545-.19-3.31-1.107-4.609C4.67-.586.889 2.776 1.003 4.915c.363 6.746 7.66 14.74 14.726 14.042 2.21-.218 4.75-4.21 2.213-5.669-1.267-.73-3.008-2.17-4.341-.767M12 1.001a7 7 0 017 7m-7-3a3 3 0 013 3" stroke="#569F4C" stroke-width="1.5" stroke-linecap="round" stroke-linejoin="round"/></svg><svg fill="none" viewBox="0 0 12 6" id="icon-caret" xmlns="http://www.w3.org/2000/svg"><path d="M.264.23A.976.976 0 01.902 0c.24 0 .469.083.638.23l4.465 3.878L10.471.23a.98.98 0 01.635-.22.975.975 0 01.63.23.737.737 0 01.264.547.733.733 0 01-.253.552L6.643 5.77A.976.976 0 016.005 6a.976.976 0 01-.637-.23L.264 1.339A.735.735 0 010 .783C0 .576.095.376.264.23z" fill="#fff"/></svg><svg fill="none" viewBox="0 0 20 20" id="icon-categories" xmlns="http://www.w3.org/2000/svg"><path d="M.833 8.332A.833.833 0 010 7.5V.833A.833.833 0 01.833 0h6.668a.833.833 0 01.833.833V7.5a.833.833 0 01-.833.833H.833zm11.668 0a.833.833 0 01-.833-.833V.833A.833.833 0 0112.5 0h6.666A.833.833 0 0120 .833V7.5a.833.833 0 01-.833.833H12.5zM.833 20A.833.833 0 010 19.167v-6.668a.833.833 0 01.833-.833h6.668a.833.833 0 01.833.833v6.668a.833.833 0 01-.833.833H.833zm11.668 0a.833.833 0 01-.833-.833v-6.668a.833.833 0 01.833-.833h6.666a.833.833 0 01.833.833v6.668a.833.833 0 01-.833.833H12.5z" fill="#fff"/></svg><svg fill="none" viewBox="0 0 20 20" id="icon-email" xmlns="http://www.w3.org/2000/svg"><path d="M18.335 6.28v7.887a2.5 2.5 0 01-2.354 2.496l-.146.004H4.168a2.5 2.5 0 01-2.496-2.354l-.004-.146V6.279l7.87 5.248.097.055a.833.833 0 00.732 0l.097-.055 7.87-5.248z" fill="#569F4C"/><path d="M15.835 3.333c.9 0 1.69.475 2.13 1.19L10.001 9.83 2.039 4.523a2.5 2.5 0 011.962-1.184l.167-.006h11.667z" fill="#569F4C"/></svg><svg fill="none" viewBox="0 0 23 23" id="icon-exit" xmlns="http://www.w3.org/2000/svg"><path fill-rule="evenodd" clip-rule="evenodd" d="M23 11.639a.86.86 0 00-.858-.863H8.371a.86.86 0 00-.858.863.86.86 0 00.858.862h13.771A.86.86 0 0023 11.64z" fill="#8E8E8E"/><path fill-rule="evenodd" clip-rule="evenodd" d="M12.326 7.677a.854.854 0 00-1.213-.003l-3.35 3.354a.865.865 0 000 1.222l3.35 3.353a.854.854 0 001.213-.002.866.866 0 00-.003-1.22L9.585 11.64l2.738-2.742a.866.866 0 00.003-1.22z" fill="#8E8E8E"/><path fill-rule="evenodd" clip-rule="evenodd" d="M14.616 2.818c.889.661 1.333 1.744 1.515 3.736a.86.86 0 00.933.78.861.861 0 00.776-.939c-.195-2.125-.706-3.848-2.203-4.963C14.204.362 12.042 0 8.98 0 4.92 0 2.423.64 1.142 2.737c-.61 1-.88 2.237-1.011 3.654C0 7.802 0 9.498 0 11.464v.072c0 1.966 0 3.662.13 5.073.132 1.417.402 2.655 1.012 3.654C2.423 22.36 4.92 23 8.98 23c3.063 0 5.224-.363 6.659-1.432 1.496-1.115 2.007-2.838 2.202-4.963a.861.861 0 00-.776-.938.86.86 0 00-.933.78c-.182 1.992-.627 3.073-1.515 3.735-.95.708-2.603 1.093-5.637 1.093-4.061 0-5.626-.688-6.375-1.915-.405-.662-.643-1.585-.765-2.91-.123-1.323-.123-2.94-.123-4.95 0-2.01 0-3.626.123-4.95.122-1.325.36-2.248.765-2.91.75-1.227 2.314-1.915 6.375-1.915 3.034 0 4.687.385 5.637 1.093z" fill="#8E8E8E"/></svg><svg fill="none" viewBox="0 0 25 23" id="icon-favorites" xmlns="http://www.w3.org/2000/svg"><path fill-rule="evenodd" clip-rule="evenodd" d="M18.837 2.131c-1.975-.646-4.362-.14-5.57 1.73a.91.91 0 01-.744.42.91.91 0 01-.761-.386C10.445 2.042 8.096 1.493 6.158 2.13c-3.647 1.198-5.137 5.726-3.923 9.594.976 3.098 3.11 5.463 5.28 7.065a15.864 15.864 0 003.062 1.785c.939.406 1.615.557 1.926.557.308 0 .986-.154 1.932-.566a16.125 16.125 0 003.08-1.805c2.18-1.613 4.309-3.976 5.25-7.032l.002-.004c1.212-3.865-.284-8.395-3.93-9.594zm-6.36-.232C14.342-.036 17.18-.373 19.396.353c4.932 1.62 6.517 7.462 5.115 11.94-1.097 3.555-3.54 6.219-5.922 7.98a17.945 17.945 0 01-3.435 2.01c-1.01.44-1.966.717-2.651.717-.683 0-1.633-.27-2.64-.704a17.678 17.678 0 01-3.421-1.993c-2.378-1.755-4.82-4.418-5.95-8.008C-.913 7.82.66 1.975 5.596.353M12.477 1.9C10.587.045 7.845-.387 5.596.353z" fill="#8E8E8E"/><path fill-rule="evenodd" clip-rule="evenodd" d="M16.153 5.835A.92.92 0 0117.157 5c.967.101 1.797.554 2.367 1.29.564.728.827 1.67.793 2.686a.923.923 0 01-.945.902.926.926 0 01-.884-.964c.021-.654-.149-1.142-.4-1.466-.245-.316-.612-.537-1.118-.59a.93.93 0 01-.817-1.024z" fill="#8E8E8E"/></svg><svg fill="none" viewBox="0 0 28 28" id="icon-location" xmlns="http://www.w3.org/2000/svg"><path d="M14 12.834h.01v.01H14v-.01z" stroke="#8E8E8E" stroke-width="3" stroke-linejoin="round"/><path d="M14 25.667l6.417-6.417a9.075 9.075 0 10-12.834 0L14 25.667z" stroke="#8E8E8E" stroke-width="2" stroke-linejoin="round"/></svg><svg fill="none" viewBox="0 0 22 24" id="icon-order" xmlns="http://www.w3.org/2000/svg"><path fill-rule="evenodd" clip-rule="evenodd" d="M5.735 16.436c0-.498.404-.9.903-.9h8.688a.901.901 0 110 1.8H6.638a.901.901 0 01-.903-.9zM5.735 11.924c0-.497.404-.9.903-.9h8.688a.901.901 0 110 1.8H6.638a.901.901 0 01-.903-.9zM5.735 7.413c0-.497.405-.9.903-.9h3.315c.499 0 .903.403.903.9s-.404.9-.903.9H6.638a.901.901 0 01-.903-.9z" fill="#8E8E8E"/><path fill-rule="evenodd" clip-rule="evenodd" d="M2.443 2.724C4.286.697 7.146 0 11 0s6.714.697 8.558 2.724C21.377 4.724 22 7.802 22 12c0 4.198-.623 7.276-2.442 9.276C17.713 23.303 14.854 24 11 24s-6.714-.697-8.557-2.724C.623 19.276 0 16.198 0 12c0-4.198.624-7.276 2.443-9.276zM3.78 3.933C2.444 5.402 1.805 7.873 1.805 12c0 4.126.639 6.598 1.975 8.067C5.092 21.509 7.28 22.2 11 22.2c3.72 0 5.909-.69 7.22-2.133 1.337-1.469 1.975-3.94 1.975-8.067 0-4.126-.639-6.598-1.974-8.067C16.909 2.491 14.72 1.8 11 1.8c-3.719 0-5.908.69-7.22 2.133z" fill="#8E8E8E"/></svg><svg fill="none" viewBox="0 0 17 17" id="icon-phone" xmlns="http://www.w3.org/2000/svg"><path d="M5.124 0H2.43A2.429 2.429 0 000 2.429v2.428C0 11.564 5.436 17 12.143 17h2.428A2.429 2.429 0 0017 14.571v-1.678a1.214 1.214 0 00-.672-1.085l-2.933-1.467a1.213 1.213 0 00-1.695.702l-.361 1.084a1.469 1.469 0 01-1.682.976 7.343 7.343 0 01-5.76-5.76 1.47 1.47 0 01.977-1.682l1.346-.45a1.214 1.214 0 00.794-1.444L6.302.919A1.214 1.214 0 005.124 0z" fill="#569F4C"/></svg><svg fill="none" viewBox="0 0 22 22" id="icon-schedule" xmlns="http://www.w3.org/2000/svg"><g clip-path="url(#lclip0_247_50851)"><path d="M10.999 1.833A9.167 9.167 0 0120.165 11 9.167 9.167 0 0111 20.167 9.166 9.166 0 011.832 11a9.166 9.166 0 019.167-9.166zm0 3.667a.917.917 0 00-.917.917V11c0 .243.097.476.269.648l2.75 2.75a.917.917 0 001.296-1.296l-2.482-2.481V6.417A.917.917 0 0011 5.5z" fill="#569F4C"/></g><defs><clipPath id="lclip0_247_50851"><path fill="#fff" d="M0 0h22v22H0z"/></clipPath></defs></svg><svg fill="none" viewBox="0 0 26 26" id="icon-search" xmlns="http://www.w3.org/2000/svg"><path d="M1 25l4.667-4.667m.666-10a9.333 9.333 0 1018.666 0 9.333 9.333 0 00-18.666 0z" stroke="#fff" stroke-width="2" stroke-linecap="round"/></svg><svg fill="none" viewBox="0 0 23 25" id="icon-settings" xmlns="http://www.w3.org/2000/svg"><path fill-rule="evenodd" clip-rule="evenodd" d="M12.245 0c.854 0 1.684.355 2.28.971.593.62.921 1.471.896 2.334a1.381 1.381 0 001.024 1.264c.356.09.728.041 1.044-.148a3.166 3.166 0 014.341 1.178l.744 1.302c.018.035.035.069.05.104.79 1.51.262 3.41-1.205 4.277a1.37 1.37 0 00-.506.508 1.43 1.43 0 00-.143 1.065c.096.362.323.663.644.848a3.216 3.216 0 011.48 1.95 3.259 3.259 0 01-.323 2.438l-.792 1.335a3.158 3.158 0 01-4.326 1.157 1.408 1.408 0 00-.665-.187h-.007a1.387 1.387 0 00-1.358 1.398C15.413 23.567 13.988 25 12.244 25h-1.494c-1.752 0-3.177-1.44-3.177-3.213a1.31 1.31 0 00-.18-.642 1.384 1.384 0 00-.84-.66 1.365 1.365 0 00-1.04.14 3.195 3.195 0 01-2.437.296c-.805-.23-1.5-.79-1.908-1.532l-.745-1.3C-.448 16.56.07 14.6 1.58 13.716a1.41 1.41 0 000-2.432C.07 10.396-.45 8.431.423 6.901l.808-1.343a3.154 3.154 0 014.32-1.165c.206.124.43.187.658.19.743 0 1.365-.62 1.377-1.383a3.192 3.192 0 01.92-2.258A3.131 3.131 0 0110.751 0h1.494zm0 1.81h-1.494c-.37 0-.716.146-.977.409-.26.264-.402.615-.4.99C9.35 4.971 7.925 6.391 6.2 6.391a3.05 3.05 0 01-1.55-.437 1.38 1.38 0 00-1.88.526l-.807 1.343a1.41 1.41 0 00.515 1.894 3.233 3.233 0 01-.002 5.565 1.403 1.403 0 00-.502 1.9l.753 1.313c.186.339.49.584.842.684a1.4 1.4 0 001.059-.125 3.103 3.103 0 011.577-.427c.274 0 .547.035.814.108.806.22 1.506.765 1.921 1.497.27.46.419.997.424 1.544 0 .785.622 1.413 1.388 1.413h1.494c.762 0 1.385-.625 1.388-1.396a3.19 3.19 0 01.927-2.27c.594-.601 1.424-.962 2.254-.938a3.22 3.22 0 011.53.427 1.387 1.387 0 001.895-.508l.792-1.335a1.41 1.41 0 00.134-1.05 1.388 1.388 0 00-.642-.847 3.178 3.178 0 01-1.481-1.952 3.255 3.255 0 01.323-2.436c.275-.482.677-.89 1.158-1.169a1.416 1.416 0 00.498-1.904.672.672 0 01-.042-.083l-.699-1.226a1.38 1.38 0 00-1.892-.518 3.089 3.089 0 01-2.392.335 3.14 3.14 0 01-1.934-1.48 3.109 3.109 0 01-.429-1.552 1.449 1.449 0 00-.392-1.055 1.385 1.385 0 00-.996-.423zm-.742 6.604c2.227 0 4.038 1.834 4.038 4.087 0 2.252-1.811 4.084-4.038 4.084-2.226 0-4.038-1.832-4.038-4.084 0-2.253 1.812-4.087 4.038-4.087zm0 1.81c-1.24 0-2.25 1.022-2.25 2.277 0 1.255 1.01 2.274 2.25 2.274s2.25-1.02 2.25-2.274c0-1.255-1.01-2.277-2.25-2.277z" fill="#8E8E8E"/></svg><svg fill="none" viewBox="0 0 26 22" id="icon-tg" xmlns="http://www.w3.org/2000/svg"><path d="M10.202 14.5l-.43 6.142c.615 0 .882-.269 1.201-.59l2.885-2.8 5.979 4.445c1.096.62 1.868.293 2.164-1.024l3.924-18.67h.001c.348-1.646-.586-2.29-1.654-1.886L1.207 9.083c-1.574.62-1.55 1.511-.268 1.915l5.897 1.863 13.697-8.703c.645-.433 1.23-.193.749.24L10.202 14.5z" fill="#569F4C"/></svg><svg fill="none" viewBox="0 0 18 21" id="icon-user" xmlns="http://www.w3.org/2000/svg"><path d="M1 19.667v-1.334A5.333 5.333 0 016.333 13h5.334A5.333 5.333 0 0117 18.333v1.334M9 9a4 4 0 110-8 4 4 0 010 8z" stroke="#fff" stroke-width="1.75" stroke-linecap="round"/></svg><svg fill="none" viewBox="0 0 28 28" id="icon-user-fill" xmlns="http://www.w3.org/2000/svg"><path d="M14 0a7 7 0 110 14 7 7 0 010-14zm0 28s14 0 14-3.5c0-4.2-6.825-8.75-14-8.75S0 20.3 0 24.5C0 28 14 28 14 28z" fill="currentColor"/></svg><svg fill="none" viewBox="0 0 22 24" id="icon-viber" xmlns="http://www.w3.org/2000/svg"><path fill-rule="evenodd" clip-rule="evenodd" d="M16.59.618a25.588 25.588 0 00-11.182 0l-.397.088A5.737 5.737 0 00.7 4.903a22.859 22.859 0 000 11.227 5.753 5.753 0 004.03 4.127l.545 3.254a.587.587 0 00.69.478.584.584 0 00.276-.138l3.197-2.864c2.399.147 4.807-.045 7.153-.57l.398-.089a5.738 5.738 0 004.311-4.197 22.862 22.862 0 000-11.227A5.753 5.753 0 0016.987.707l-.396-.089zM6.397 4.808a.96.96 0 00-.628.124H5.75a4.81 4.81 0 00-1.171.965c-.281.325-.433.653-.473.97-.024.187-.007.377.048.557l.02.011c.317.93.729 1.824 1.232 2.666a15.677 15.677 0 002.376 3.253l.028.04.044.033.027.032.033.028c.98.932 2.073 1.736 3.256 2.391 1.352.738 2.172 1.086 2.665 1.231v.007c.144.045.275.065.407.065.42-.031.817-.202 1.128-.486.38-.337.702-.735.953-1.177v-.008c.235-.445.155-.865-.184-1.15a14.196 14.196 0 00-2.201-1.582c-.525-.285-1.057-.113-1.272.175l-.46.582c-.237.288-.665.248-.665.248l-.012.007c-3.196-.817-4.05-4.058-4.05-4.058s-.039-.44.257-.666l.576-.464c.276-.225.468-.758.172-1.283a13.841 13.841 0 00-1.576-2.204.875.875 0 00-.515-.308l.002.001zm5.4-1.409a.585.585 0 00-.414 1c.11.11.259.172.414.172 1.48 0 2.71.485 3.682 1.413.5.508.89 1.109 1.144 1.768a5.11 5.11 0 01.343 2.07.588.588 0 00.56.61.585.585 0 00.61-.56 6.29 6.29 0 00-.422-2.545 6.382 6.382 0 00-1.409-2.173l-.012-.012C15.086 3.988 13.558 3.4 11.796 3.4zm-.04 1.927a.585.585 0 00-.414 1.001c.11.11.259.172.414.172h.02c1.067.076 1.844.432 2.389 1.017.558.603.847 1.352.825 2.278a.587.587 0 00.99.438.587.587 0 00.18-.411c.028-1.216-.363-2.265-1.138-3.102v-.002c-.792-.851-1.88-1.302-3.188-1.39l-.02-.002-.058.001zm-.022 1.964a.584.584 0 00-.48.984.584.584 0 00.419.186c.49.026.802.173.998.372.198.199.346.519.372 1.02a.586.586 0 101.168-.063c-.037-.703-.257-1.324-.708-1.782-.453-.457-1.07-.68-1.77-.717z" fill="#569F4C"/></svg><svg fill="none" viewBox="0 0 24 24" id="icon-whapp" xmlns="http://www.w3.org/2000/svg"><path d="M12.003 0h-.006C5.38 0 0 5.382 0 12c0 2.625.846 5.058 2.284 7.034L.79 23.49l4.613-1.474A11.896 11.896 0 0012.003 24C18.619 24 24 18.616 24 12c0-6.617-5.38-12-11.997-12z" fill="#569F4C"/><path d="M18.986 16.945c-.29.818-1.439 1.496-2.355 1.694-.627.133-1.446.24-4.203-.903C8.9 16.275 6.63 12.69 6.453 12.459c-.17-.233-1.425-1.898-1.425-3.62 0-1.722.875-2.56 1.227-2.92.29-.296.768-.43 1.227-.43.149 0 .282.007.402.013.353.015.53.036.762.592.29.698.995 2.42 1.079 2.597.085.177.17.417.05.65-.112.24-.21.346-.388.55-.177.204-.345.36-.522.579-.162.19-.345.394-.14.747.203.345.908 1.495 1.946 2.42 1.34 1.192 2.426 1.573 2.814 1.735.29.12.635.091.846-.134.269-.29.6-.77.938-1.242.24-.339.543-.38.86-.26.325.112 2.04.96 2.392 1.135.352.177.585.26.67.41.084.148.084.845-.205 1.664z" fill="#fff"/></svg></svg>